<svg width="754" height="841" viewBox="0 0 754 841" fill="none" xmlns="http://www.w3.org/2000/svg">
<path d="M112.512 37.3371C41.9348 46.1719 8.76349 16.7936 1 1L753 2.42498V836.396C485.285 868.417 548.679 677.51 561.03 641.173C573.381 604.836 658.779 366.152 548.679 191.591C438.579 17.031 200.733 26.2934 112.512 37.3371Z" fill="#E23744"/>
<path d="M112.512 37.3371C41.9348 46.1719 8.76349 16.7936 1 1L753 2.42498V836.396C485.285 868.417 548.679 677.51 561.03 641.173C573.381 604.836 658.779 366.152 548.679 191.591C438.579 17.031 200.733 26.2934 112.512 37.3371Z" stroke="black"/>
<path d="M112.512 37.3371C41.9348 46.1719 8.76349 16.7936 1 1L753 2.42498V836.396C485.285 868.417 548.679 677.51 561.03 641.173C573.381 604.836 658.779 366.152 548.679 191.591C438.579 17.031 200.733 26.2934 112.512 37.3371Z" stroke="black" stroke-opacity="0.2"/>
</svg>
